<svg viewBox="0 0 1312.3 889.5" xmlns="http://www.w3.org/2000/svg">
    <g>
        <path d="M671,175.2h-87.9v-52.5h70.5V87.6h-70.5V35.1H671V0H548v210.6h123V175.2"/>
        <path d="M105.3,210.6l35.4-35.4v-52.5L123,105.3l-17.7-17.7H52.8L35.1,70.2V52.5l17.7-17.4 h34.8l17.7,17.4h35.4V35.1L105.3,0H35.1L0,35.1v52.5l35.1,35.1h52.5l17.7,17.7v17.4l-17.7,17.4H52.8l-17.7-17.4H0v17.4l35.1,35.4 L105.3,210.6L105.3,210.6"/>
        <path d="M323,0h-35.1v157.8l-17.4,17.4h-35.1l-17.7-17.4V0h-35.1v175.2l35.1,35.4h70.2 l35.1-35.4V0"/>
        <path d="M367.4,0.3v210.3h35.1V123h70.2l35.1-35.1V35.4L472.7,0.3H367.4z M472.7,70.5 L455,87.9h-52.5V35.4H455l17.7,17.4L472.7,70.5z"/>
        <path d="M713.7,0.3v210.3h35.1V123h52.5l17.4,17.7v69.9h35.1V123l-17.4-17.4l17.4-17.7V35.4 L818.8,0.3H713.7z M818.8,70.5l-17.4,17.4h-52.5V35.4h52.5l17.4,17.4V70.5z"/>
    </g>
    <g>
        <path d="M372.4,259.5l-72.6,72.6v218h48.5v-96.6h96.9v96.6h48.5v-218l-72.9-72.6H372.4z M445.3,405h-96.9v-48.5l50.4-49.3l46.6,49.3V405z"/>
        <path d="M121,331.7l-72.5-72.5H0v290.9h48.5V331.7l72.5,72.9l72.5-72.9v218.4h48.5V259.1 h-48.5L121,331.7"/>
        <path d="M552.4,259.5v290.6h48.5V429h72.6l24.1,24.4v96.6H746V429L721.9,405l24.1-24.4V308 l-48.5-48.5H552.4z M697.5,356.5l-24.1,24.1h-72.6V308h72.6l24.1,24.1V356.5z"/>
        <path d="M979.9,259.5l-72.5,72.6v145.5l72.5,72.5h121.4l48.5-48.5l24.1-24.1V332.1 l-72.6-72.6H979.9z M1125.4,453.5l-48.5,48.1h-72.6l-48.5-48.1v-97l48.5-48.5h72.6l48.5,48.5V453.5z"/>
        <path d="M805.3,550.1h48.5V259.5h-48.5L805.3,550.1L805.3,550.1"/>
    </g>
    <g>
        <path d="M1306.3,853.8l-8.8,8.9l-8.9-8.9h-5.9v35.5h5.9v-26.6l8.9,8.9l8.8-8.9v26.6h5.9 v-35.5H1306.3"/>
        <path d="M1253.6,859.9h8.9v29.6h5.9v-29.6h8.9V854h-23.6V859.9"/>
        <path d="M804.6,889.5h169.9v-48.9H853.1v-72.5h97.4v-48.5h-97.4V647h121.4v-48.5H804.6 V889.5"/>
        <path d="M1033.4,598.9v290.5h48.5v-121h72.5l24.1,24.4v96.6h48.5v-121l-24.1-24.1l24.1-24.4 v-72.5l-48.5-48.5L1033.4,598.9L1033.4,598.9z M1178.6,695.9l-24.1,24.1H1082v-72.5h72.5l24.1,24.1V695.9z"/>
        <path d="M600.5,695.6v-97H552v290.9h48.5V768.1L722,889.5h24v-48.9L637,732l109-109.4v-24 h-48.5L600.5,695.6"/>
        <path d="M121.1,671.1l-72.6-72.5H0v290.9h48.5V671.1l72.6,72.9l72.5-72.9v218.4h48.5V598.6 h-48.5L121.1,671.1"/>
        <path d="M372.4,598.9l-72.6,72.5v218h48.5v-96.6h97v96.6h48.5v-218l-72.9-72.5H372.4z M445.4,744.4h-97v-48.5l50.4-49.3l46.5,49.3L445.4,744.4z"/>
    </g>
</svg>
