<svg viewBox="0 0 2868.1845703 1483.0039062" xmlns="http://www.w3.org/2000/svg">
    <g>
        <path d="m1510.3306885 942.8765869v379.4836426h63.3306885v-158.0733643h94.7426758l31.4119873 31.9187012v126.1546631h63.3306885v-158.0733643l-31.4119873-31.4119873 31.4119873-31.9187012v-94.7489014l-63.3306885-63.3306885h-189.4853516zm189.4853515 126.6676026-31.4119873 31.4119873h-94.7426758v-94.7489014h94.7426758l31.4119873 31.4182129zm-1381.0989379-475.7401734-94.7427063-94.7489014h-63.3306885v379.9841309h63.3306885v-285.2352295l94.7427063 95.2431641 94.7427063-95.2431641v285.2352295h63.3306885v-379.9841309h-63.3306885zm263.7491455-433.1603088h-45.8452148v206.1262512l-22.7409668 22.7415771h-45.8508301l-23.1036377-22.7415771v-206.1262512h-45.844635v228.8678284l45.844635 46.2128906h91.6954346l45.8452148-46.2128906zm-263.7491455 876.4750671-94.7427063-94.7488403h-63.3306885v379.9902954h63.3306885v-285.2414551l94.7427063 95.2493896 94.7427063-95.2493896v285.2414551h63.3306885v-379.9902954h-63.3306885zm1472.7539672 246.5887451h11.5484619v38.5983887h7.717041v-38.5983887h11.6152344v-7.717041h-30.8807373zm68.8093262-7.9042968-11.5490723 11.5490723-11.5422363-11.5490723h-7.7232666v46.3154297h7.7232666v-34.7663574l11.5422363 11.6090088 11.5490723-11.6090088v34.7663574h7.717041v-46.3154297zm-725.3604736-712.9107666-63.3306885-63.330719h-189.4848022v379.4775085h63.3306885v-158.0734253h94.7421265l31.4119873 31.9187012v126.1547241h63.3306885v-158.0734253l-31.4119873-31.4119873 31.4119873-31.9187012v-94.7426757zm-63.3306885 63.336853-31.4119873 31.4058228h-94.7421265v-94.7426758h94.7421265l31.4119873 31.4181519zm-385.2878418-304.93573h91.6960449l45.8446045-45.8569946v-68.5800171l-45.8446045-45.8446198h-137.5406494v274.7124634h45.8446045zm0-114.4370117h68.5862427l23.1098022 22.7354126v23.1092072l-23.1098022 22.7353973h-68.5862427zm-388.1176453 228.8678589 46.2128601-46.2128906v-68.5917664l-23.0974731-22.7354126-23.115387-23.1098328h-68.5862122l-23.1092072-22.7353973v-23.1092224l23.1092072-22.7415771h45.4831848l23.1030273 22.7415771h46.2128601v-22.7415772l-46.2128601-45.8446198h-91.6954192l-45.8446198 45.8446198v68.5861969l45.8446198 45.8452454h68.592392l23.1030273 23.1092224v22.7409668l-23.1030273 22.7415771h-45.4831848l-23.1092072-22.7415771h-45.8446198v22.7415771l45.8446198 46.2128906h91.6954193zm836.7306824 822.7985229-142.3674316-141.8608398 142.3674316-142.880188v-31.4119873h-63.3306885l-126.661438 126.6675415v-126.6675415h-63.3306885v379.9902954h63.3306885v-158.5800781l158.5800171 158.5800781h31.4121094zm76.5021973 63.8372803h221.9107666v-63.8372803h-158.5800781v-94.7427979h127.1679688v-63.3306885h-127.1679688v-94.7426758h158.5800781v-63.336853h-221.9107666zm1.0194092-443.3209839h63.3306885v-379.4775085h-63.3306885zm17.4860839-443.3148193h45.8508301v-114.4308472l-22.7415771-22.7471619 22.7415771-23.1098328v-68.5800171l-45.8508301-45.8446198h-137.1723633v274.7124634h45.8452148v-114.4308318h68.5855713l22.7415771 23.1036682v91.327179zm-22.7415771-160.2878418h-68.5855713v-68.5800171h68.5855713l22.7415771 22.7354126v23.1092072zm-591.5710449 920.7689819h126.661377v126.1546631h63.3306885v-284.7347412l-95.2493286-94.7489014h-63.3306885l-94.7427368 94.7489014v284.7347412h63.3306885v-126.1546631zm0-126.6613769 65.8651733-64.3440552 60.7962036 64.3440552v63.3306885h-126.661377v-63.3306885zm1078.1361084-285.2476807v-189.9859009l-94.7420654-94.7488708h-158.5806885l-94.748291 94.7488708v189.9859009l94.748291 94.7427368h158.5806884zm-221.4034424 31.4120483-63.3306885-62.8240356v-126.6552124l63.3306885-63.336853h94.7420654l63.3306885 63.336853v126.6552124l-63.3306885 62.8240356zm-856.7382202-62.8240356h126.661377v126.1547241h63.3306885v-284.7286377l-95.249939-94.7488708h-63.3306885l-94.7421265 94.7488708v284.7286377h63.3306885zm0-126.6552124 65.864563-64.3439941 60.796814 64.3439941v63.3245239h-126.661377zm421.3634643-236.7177735h-114.7990722v-68.5917664h92.0637207v-45.8452454h-92.0637207v-68.5861968h114.7990723v-45.8446198h-160.6436768v275.080719h160.6436768v-46.2128906z"/>
        <path d="m2707.5410156 1128.7431641v193.6170654h-774.482666v-484.0461426l193.6242676-193.6170044h290.4291992l96.8049316-96.8121338v-96.8121033l-96.8049316-96.8049011h-193.6242676l-96.8049316 96.8049011h-193.6242676v-96.8049011l193.6242676-193.6242371h387.2341309l193.6242676 193.6242371v290.4291382l-193.6242677 193.6170044h-290.4291992l-96.8049316 96.8121338v193.6169434z" fill="#e60012"/>
    </g>
</svg>
