<svg viewBox="0 0 60 60" xmlns="http://www.w3.org/2000/svg" enable-background="new 0 0 60 60" xml:space="preserve">
<path fill="#9FC023" d="M16.1,28.3l-5.8-0.8c-0.1,0-0.2,0.1-0.2,0.2c-0.2,1.6-0.2,3.3,0,4.9c0,0.1,0.1,0.2,0.2,0.2l5.8-0.8	c0.1,0,0.2-0.1,0.2-0.2c-0.1-1.1-0.1-2.2,0-3.3C16.3,28.4,16.3,28.3,16.1,28.3z"/>
    <path fill="#D71721" d="M19,21.4l-4.7-3.6c-0.1-0.1-0.2-0.1-0.3,0.1c-1,1.3-1.8,2.8-2.5,4.3c-0.1,0.1,0,0.2,0.1,0.2l5.5,2.3 c0.1,0.1,0.2,0,0.2-0.1c0.4-1,1-2,1.7-2.9C19.1,21.6,19.1,21.5,19,21.4z"/>
    <path fill="#2491D0" d="M17.1,35.7l-5.5,2.2c-0.1,0.1-0.2,0.2-0.1,0.2c0.7,1.5,1.5,2.9,2.5,4.3c0.1,0.1,0.2,0.1,0.3,0.1l4.7-3.6 c0.1-0.1,0.1-0.2,0.1-0.3c-0.7-0.9-1.2-1.9-1.6-2.9C17.3,35.7,17.2,35.6,17.1,35.7z"/>
    <path fill="#ECA517" d="M45,32l5.8,0.8c0.1,0,0.2-0.1,0.2-0.2c0.2-1.6,0.2-3.3,0-4.9c0-0.1-0.1-0.2-0.2-0.2L45,28.3 c-0.1,0-0.2,0.1-0.2,0.2c0.1,1.1,0.1,2.2,0,3.3C44.8,31.9,44.9,32,45,32z"/>
    <path fill="#D53183" d="M42.2,38.9l4.7,3.6c0.1,0.1,0.2,0.1,0.3-0.1c1-1.3,1.8-2.8,2.5-4.3c0.1-0.1,0-0.2-0.1-0.2L44,35.7 c-0.1-0.1-0.2,0-0.2,0.1c-0.4,1-1,2-1.7,2.9C42.1,38.8,42.1,38.9,42.2,38.9z"/>
    <path fill="#11917D" d="M44,24.7l5.5-2.2c0.1-0.1,0.2-0.2,0.1-0.2c-0.7-1.5-1.5-2.9-2.5-4.3c-0.1-0.1-0.2-0.1-0.3-0.1l-4.7,3.6 c-0.1,0.1-0.1,0.2-0.1,0.3c0.7,0.9,1.2,1.9,1.7,2.9C43.8,24.7,43.9,24.7,44,24.7z"/>
    <path fill="#040000" d="M34.4,38.6c-0.1,0-0.2-0.1-0.2-0.2V31c0-2.8-1.4-4.6-3.9-4.6c-2,0-3.8,1.6-3.8,3.7c0,2.6,2,3.9,3.7,3.9	c1,0,1.8-0.2,2.4-0.4c0.1-0.1,0.2,0.1,0.2,0.2V38c0,0.1-0.1,0.1-0.1,0.2c-1,0.6-2.1,0.8-3.6,0.8c-3.5,0-8.1-3-8.1-8.8 c0-5,3.9-8.9,9.2-8.9c5.4,0,9.5,3.5,9.5,8.7v8.3c0,0.1-0.1,0.2-0.2,0.2H34.4z"/>
</svg>
