<svg viewBox="0 0 263 246.38" xmlns="http://www.w3.org/2000/svg">
    <g>
        <g>
            <path d="M1.73,189.81v2.59H5.19v1.73H1.73v4.33H0V188.08H6.06v1.73Z"/>
            <path d="M17.06,190.68v5.19l-.86.86-1.73,1.73H10.14l-2.59-2.59v-5.19l2.59-2.59h4.33Zm-1.73.87-1.73-1.73H11l-1.73,1.73V195L11,196.73H13.6L15.33,195Z"/>
            <path d="M25.6,189.82v2.59l-.86.87.86.86v4.32H23.87V195l-.86-.87H20.43v4.32H18.7V188.09h5.17Zm-1.73.86-.86-.86H20.43v2.59H23l.86-.86Z"/>
            <path d="M38.4,188.08v10.38H36.69v-4.33l-3.47-3.46v7.79H31.48V188.08h1.73l3.47,3.46v-3.46Z"/>
            <path d="M40.38,188.09h1.73v10.36H40.38Z"/>
            <path d="M51,188.08v10.38H49.28v-4.33l-3.47-3.46v7.79H44.08V188.08h1.73l3.47,3.46v-3.46Z"/>
            <path d="M59.44,188.08v1.73h-2.6v8.65H55.11v-8.65H52.52v-1.73Z"/>
            <path d="M62.7,189.81v2.59h3.47v1.73H62.7v2.59H67v1.74H61V188.08H67v1.73Z"/>
            <path d="M75.91,188.08v10.38H74.19v-4.33l-3.47-3.46v7.79H69V188.08h1.73l3.47,3.46v-3.46Z"/>
            <path d="M84.82,189.82v6.9l-1.73,1.73H77.9V188.09h5.19Zm-1.73.86-.87-.86H79.63v6.9h2.59l.87-.86Z"/>
            <path d="M96,190.68v5.19l-.86.86-1.73,1.73H89.1l-2.59-2.59v-5.19l2.59-2.59h4.33Zm-1.73.87-1.73-1.73H90l-1.73,1.73V195L90,196.73h2.59L94.28,195Z"/>
        </g>
        <path d="M207.13,120v58.24h9.72V154h14.54l4.82,4.9v19.36h9.72V154l-4.82-4.82,4.82-4.9V129.76L236.21,120Zm29.08,19.44-4.82,4.82H216.85V129.76h14.54l4.82,4.82Zm-211.95-73L9.72,51.93H0v58.31H9.72V66.47L24.26,81.09,38.8,66.47v43.77h9.72V51.93H38.8ZM64.73,0h-7V31.63l-3.49,3.49h-7l-3.55-3.49V0h-7V35.12l7,7.09H57.7l7-7.09ZM24.26,134.51,9.72,120H0v58.31H9.72V134.51l14.54,14.62L38.8,134.51v43.77h9.72V120H38.8Zm227,37.84H253v5.92h1.18v-5.92H256v-1.18h-4.74Zm10.56-1.21L260,172.91l-1.77-1.77h-1.19v7.11h1.19v-5.34l1.77,1.78,1.77-1.78v5.34H263v-7.11ZM149.52,61.73,139.8,52H110.72v58.24h9.72V86H135l4.82,4.9v19.36h9.72V86l-4.82-4.82,4.82-4.9Zm-9.72,9.72L135,76.27H120.44V61.73H135l4.82,4.82ZM80.67,24.65H94.74l7-7V7.09l-7-7H73.63V42.21h7Zm0-17.56H91.19l3.55,3.49v3.55l-3.55,3.49H80.67ZM21.11,42.21l7.09-7.09V24.6l-3.54-3.49-3.55-3.55H10.58L7,14.07V10.53L10.58,7h7l3.55,3.49H28.2V7L21.11,0H7L0,7V17.56l7,7H17.56l3.55,3.55v3.49l-3.55,3.49h-7L7,31.63H0v3.49l7,7.09ZM149.52,168.48l-21.85-21.77,21.85-21.93V120H139.8l-19.44,19.44V120h-9.72v58.31h9.72V153.95l24.34,24.34h4.82Zm11.74,9.8h34.06v-9.8H171V153.95h19.52v-9.72H171V129.69h24.34V120H161.26Zm.16-68h9.72V52h-9.72Zm2.68-68h7V24.65l-3.49-3.49,3.49-3.55V7.09l-7-7H143V42.21h7V24.65h10.53l3.49,3.55Zm-3.49-24.6H150.08V7.09h10.53l3.49,3.49v3.55ZM69.82,158.92H89.26v19.36H99v-43.7L84.36,120H74.64L60.1,134.58v43.7h9.72Zm0-19.44,10.11-9.87,9.33,9.87v9.72H69.82ZM235.28,95.71V66.55L220.74,52H196.4L181.86,66.55V95.71l14.54,14.54h24.34Zm-34,4.82-9.72-9.64V71.45l9.72-9.72h14.54l9.72,9.72V90.89l-9.72,9.64ZM69.82,90.89H89.26v19.36H99V66.55L84.36,52H74.64L60.1,66.55v43.7h9.72Zm0-19.44,10.11-9.87,9.33,9.87v9.72H69.82Zm64.66-36.33H116.87V24.6H131v-7H116.87V7h17.62V0H109.83V42.21h24.65Z"/>
        <g>
            <path d="M139.61,217.24l4.89,4.82v14.61l-9.71,9.71H114.62l-9.71-9.71v-4.89h9.71l4.82,4.89H129.9l4.89-4.89V227l-4.89-4.89H119.43v-9.71H129.9l4.89-4.82v-4.89l-4.89-4.82H119.43l-4.82,4.82h-9.71v-4.82l9.71-9.71h20.18l9.71,9.71v14.53Z" fill="#ce181e"/>
            <path d="M195.34,197.9v38.77l-9.71,9.71H155.85V188.19h29.78Zm-9.71,4.82-4.89-4.82H165.56v38.77h15.17l4.89-4.82Z" fill="#ce181e"/>
            <path d="M216.39,202.64v4.89l4.9,4.82h14.85l4.89,4.89,4.89,4.82v14.53l-9.79,9.79H216.39l-9.71-9.79v-4.82h9.71l4.9,4.82h10l4.9-4.82V227l-4.9-4.89H216.39l-9.71-9.71V197.82l9.71-9.71h19.75l9.79,9.71v4.82h-9.79l-4.9-4.82h-10Z" fill="#ce181e"/>
        </g>
    </g>
</svg>
